<?xml version="1.0" encoding="UTF-8" standalone="no"?>
<!-- Created with Inkscape (http://www.inkscape.org/) -->

<svg
   xmlns:dc="http://purl.org/dc/elements/1.1/"
   xmlns:cc="http://creativecommons.org/ns#"
   xmlns:rdf="http://www.w3.org/1999/02/22-rdf-syntax-ns#"
   xmlns:svg="http://www.w3.org/2000/svg"
   xmlns="http://www.w3.org/2000/svg"
   xmlns:sodipodi="http://sodipodi.sourceforge.net/DTD/sodipodi-0.dtd"
   xmlns:inkscape="http://www.inkscape.org/namespaces/inkscape"
   width="744.09448819"
   height="1052.3622047"
   id="svg3425"
   version="1.1"
   inkscape:version="0.48.1 r9760"
   sodipodi:docname="letterhead_left.svg">
  <defs
     id="defs3427">
    <inkscape:perspective
       sodipodi:type="inkscape:persp3d"
       inkscape:vp_x="0 : 526.18109 : 1"
       inkscape:vp_y="0 : 1000 : 0"
       inkscape:vp_z="744.09448 : 526.18109 : 1"
       inkscape:persp3d-origin="372.04724 : 350.78739 : 1"
       id="perspective3433" />
    <inkscape:perspective
       id="perspective3401"
       inkscape:persp3d-origin="0.5 : 0.33333333 : 1"
       inkscape:vp_z="1 : 0.5 : 1"
       inkscape:vp_y="0 : 1000 : 0"
       inkscape:vp_x="0 : 0.5 : 1"
       sodipodi:type="inkscape:persp3d" />
  </defs>
  <sodipodi:namedview
     id="base"
     pagecolor="#ffffff"
     bordercolor="#666666"
     borderopacity="1.0"
     inkscape:pageopacity="0.0"
     inkscape:pageshadow="2"
     inkscape:zoom="2.4436652"
     inkscape:cx="227.14286"
     inkscape:cy="994.16628"
     inkscape:document-units="px"
     inkscape:current-layer="layer1"
     showgrid="false"
     inkscape:window-width="1680"
     inkscape:window-height="975"
     inkscape:window-x="0"
     inkscape:window-y="25"
     inkscape:window-maximized="1" />
  <metadata
     id="metadata3430">
    <rdf:RDF>
      <cc:Work
         rdf:about="">
        <dc:format>image/svg+xml</dc:format>
        <dc:type
           rdf:resource="http://purl.org/dc/dcmitype/StillImage" />
        <dc:title />
      </cc:Work>
    </rdf:RDF>
  </metadata>
  <g
     inkscape:label="Layer 1"
     inkscape:groupmode="layer"
     id="layer1">
    <g
       id="g2997"
       transform="matrix(0.1663711,0,0,-0.1663711,62.006657,68.642034)">
      <path
         inkscape:connector-curvature="0"
         d="m 0,0 c -0.938,0.62 -34.805,90.118 -36.984,90.431 -2.17,0.31 -3.416,14.915 -0.619,17.091 2.798,2.173 12.124,10.88 12.124,10.88 0,0 10.13,11.311 19.073,3.532 9.129,-7.947 12.198,6.369 12.198,6.369 0.022,0.181 0.024,0.346 0.024,0.51 0.007,-0.012 0.013,-0.027 0.019,-0.037 0.172,1.581 1.238,3.294 2.865,5.04 12.457,1.774 38.325,1.109 63.835,17.364 -21.259,-5.41 -32.755,-2.362 -37.148,-1.06 0.34,0.136 0.428,0.275 0.479,0.275 l 0.029,0.004 c 12.097,10.276 47.577,46.019 1.159,79.051 -54.917,39.087 -2.968,38.097 -2.968,38.097 0,0 1.486,12.861 -1.483,16.822 -2.968,3.958 -61.35,-13.851 -31.168,-52.442 0,0 33.811,-28.442 23.747,-33.645 -7.055,-4.467 -13.486,-4.546 -17.268,-0.102 -1.483,1.922 -3.199,3.211 -5.179,3.659 -0.048,0.041 -0.077,0.069 -0.077,0.069 l 0.006,-0.054 c -0.745,0.163 -1.527,0.22 -2.353,0.137 -21.754,-2.171 -42.576,1.867 -42.576,1.867 -35.736,13.053 -46.302,2.797 -46.302,2.797 -15.534,-19.576 -45.371,-9.946 -45.371,-9.946 -105.346,20.511 -122.751,-71.786 -122.751,-71.786 -18.333,-24.548 -14.915,-82.973 -14.915,-82.973 l 8.701,0 c 17.405,-0.929 -2.795,15.85 -2.795,15.85 0.622,27.351 11.502,64.326 11.502,50.966 0,-13.365 26.488,-67.356 26.488,-67.356 -9.556,-4.429 -25.253,-21.832 -25.253,-21.832 -12.27,1.319 -16.232,-8.703 -16.232,-8.703 0,0 -7.459,-17.248 14.679,-27.969 22.145,-10.717 21.91,11.423 21.91,11.423 0,0 11.654,26.334 15.149,17.944 5.828,-10.255 4.429,-14.212 4.429,-14.212 -4.429,-20.512 1.63,-18.185 1.63,-18.185 l 22.455,-0.387 c 28.899,0 6.213,19.892 3.727,19.892 -2.485,0 -16.16,35.426 -5.28,36.666 18.645,2.178 32.005,27.969 32.005,27.969 23.932,-6.839 52.517,9.012 54.071,9.012 1.557,0 0.625,-6.838 -0.307,-10.878 -0.933,-4.032 -14.377,-48.011 -19.266,-61.062 -4.898,-13.05 -6.527,-17.482 17.949,-17.248 24.469,0.236 13.748,8.7 12.815,9.014 -0.934,0.31 -3.032,7.766 1.861,11.188 5.906,1.86 25.482,52.517 25.795,47.548 0.309,-4.976 18.643,-26.73 29.829,-35.429 11.191,-8.705 10.879,-23.307 10.879,-23.307 -4.97,-11.811 0.312,-11.499 0.312,-11.499 l 22.683,0.312 C 27.967,-18.333 0.932,-0.619 0,0"
         style="fill:#71bf50;fill-opacity:1;fill-rule:nonzero;stroke:none"
         id="path2999" />
    </g>
    <text
       xml:space="preserve"
       style="font-size:21.88499450999999851px;font-style:normal;font-weight:normal;line-height:125%;letter-spacing:0px;word-spacing:0px;fill:#71bf50;fill-opacity:1;stroke:none;font-family:Sans"
       x="100.03108"
       y="53.537891"
       id="text3039"
       sodipodi:linespacing="125%"><tspan
         sodipodi:role="line"
         id="tspan3041"
         x="100.03108"
         y="53.537891"
         style="font-weight:bold;-inkscape-font-specification:Sans Bold">company name</tspan></text>
  </g>
</svg>
